# xmcd
#
# Track frame offsets:
#	150
#	34727
#	75710
#	93127
#	123830
#	135047
#	159050
#	180382
#	202552
#	226947
#	250527
#	264427
#	317627
#
# Disc length: 4668 seconds
#
# Revision: 0
# Processed by: cddbd v1.5.2PL0 Copyright (c) Steve Scherf et al.
# Submitted via: EZCDAudioConverter 1.3.4.1
#
DISCID=81123a0d
DTITLE=Santana - Santana 2/2
DYEAR=1900
DGENRE=
TTITLE0=Fried Neck Bones And Some Home Fries
TTITLE1=Soul Sacrifice
TTITLE2=Persuasion
TTITLE3=Treat
TTITLE4=Shades Of Time
TTITLE5=Jingo
TTITLE6=Waiting [Live]
TTITLE7=You Just Don't Care [Live]
TTITLE8=Savor [Live]
TTITLE9=Jingo [Live]
TTITLE10=Persuasion [Live]
TTITLE11=Soul Sacrifice [Live]
TTITLE12=Fried Neck Bones And Some Home Fries [Live]
EXTD=
EXTT0=
EXTT1=
EXTT2=
EXTT3=
EXTT4=
EXTT5=
EXTT6=
EXTT7=
EXTT8=
EXTT9=
EXTT10=
EXTT11=
EXTT12=
PLAYORDER=
